<?xml version="1.0" standalone="no"?>
<!DOCTYPE svg PUBLIC "-//W3C//DTD SVG 20010904//EN"
 "http://www.w3.org/TR/2001/REC-SVG-20010904/DTD/svg10.dtd">
<svg version="1.0" xmlns="http://www.w3.org/2000/svg"
 width="95.000000pt" height="123.000000pt" viewBox="0 0 95.000000 123.000000"
 preserveAspectRatio="xMidYMid meet">

<g transform="translate(0.000000,123.000000) scale(0.100000,-0.100000)"
fill="#000000" stroke="none">
<path d="M560 1170 c0 -6 7 -10 15 -10 8 0 15 2 15 4 0 2 -7 6 -15 10 -8 3
-15 1 -15 -4z"/>
<path d="M608 1100 c23 -10 57 -31 75 -44 19 -14 37 -23 42 -18 5 4 5 1 1 -5
-11 -20 9 -15 29 7 14 16 16 23 7 32 -9 9 -16 9 -28 -4 -14 -14 -21 -12 -72
18 -31 19 -65 34 -76 34 -14 0 -6 -7 22 -20z"/>
<path d="M353 1073 l-42 -14 19 -22 c21 -22 26 -37 12 -37 -5 0 -14 11 -20 25
-6 14 -16 25 -22 25 -6 0 -8 6 -4 13 4 7 3 9 -2 4 -5 -5 -9 -12 -9 -15 0 -13
-16 -32 -27 -32 -6 0 -5 7 3 18 13 15 12 16 -3 3 -10 -7 -16 -17 -13 -21 6 -9
-29 -42 -37 -35 -3 3 -11 -3 -19 -12 -12 -16 -12 -17 2 -6 13 10 19 10 35 -2
28 -21 40 -18 19 5 -10 11 -14 20 -8 20 5 0 17 -8 26 -17 13 -16 14 -21 2 -37
-14 -18 -15 -18 -34 5 -23 29 -30 24 -60 -50 -54 -129 -31 -257 67 -363 31
-34 19 -37 -17 -5 -15 13 -20 15 -12 4 8 -10 28 -28 45 -40 22 -15 27 -16 17
-4 -18 23 -12 22 45 -10 44 -25 59 -28 144 -28 l95 0 0 29 c0 38 21 45 36 12
7 -14 16 -23 20 -20 5 3 1 17 -8 32 -9 15 -17 28 -18 29 -1 2 -15 -3 -32 -9
-26 -10 -29 -14 -20 -30 9 -13 9 -20 0 -29 -18 -18 -35 0 -28 28 4 16 2 22 -5
18 -5 -3 -10 -17 -10 -31 0 -13 -4 -24 -10 -24 -5 0 -10 11 -10 24 0 21 -7 26
-52 35 -28 7 -66 20 -83 31 -28 17 -34 18 -58 5 -30 -15 -32 -13 -15 14 9 15
5 30 -20 81 -50 99 -42 183 25 283 28 41 30 46 15 61 -12 12 -13 19 -5 27 13
13 43 5 43 -12 0 -6 -7 -9 -14 -6 -10 4 -13 1 -9 -9 3 -7 9 -14 15 -14 5 0 6
-5 2 -12 -4 -7 -3 -8 5 -4 6 4 9 12 5 17 -3 5 17 20 45 33 36 16 47 26 39 34
-13 13 -2 32 19 32 11 0 14 -7 11 -24 -4 -17 -1 -23 9 -19 7 3 13 13 13 23 0
11 5 22 11 26 8 5 10 -1 6 -18 -5 -19 -2 -28 9 -32 24 -9 29 -7 17 5 -15 15
-5 39 14 39 11 0 14 -7 11 -25 -4 -20 0 -26 24 -34 19 -7 27 -7 22 0 -7 12 15
41 26 34 5 -3 11 -1 14 4 10 16 -85 41 -153 40 -36 0 -85 -7 -108 -16z m212
-32 c-3 -12 -11 -21 -16 -21 -6 0 -8 3 -6 8 2 4 7 16 11 26 9 25 20 13 11 -13z
m-175 -1 c0 -11 -6 -20 -14 -20 -21 0 -31 21 -15 31 22 14 29 11 29 -11z m-72
-517 c-5 -26 -38 -29 -38 -4 0 15 6 21 21 21 14 0 19 -5 17 -17z m40 -23 c3
-7 0 -10 -7 -6 -7 5 -9 1 -5 -8 3 -9 1 -16 -4 -16 -16 0 -25 19 -18 36 7 18
28 14 34 -6z m47 -10 c3 -5 3 -15 -1 -21 -4 -8 -9 -7 -15 2 -7 11 -9 11 -9 1
0 -7 -4 -11 -10 -7 -13 8 -1 35 15 35 8 0 17 -4 20 -10z m53 -23 c2 -12 -3
-17 -17 -17 -15 0 -21 6 -21 21 0 25 33 22 38 -4z"/>
<path d="M591 1087 c16 -12 79 -45 79 -42 0 7 -63 45 -74 45 -5 0 -7 -1 -5 -3z"/>
<path d="M622 1025 c-7 -14 -17 -25 -24 -25 -7 0 -2 -9 12 -20 14 -10 25 -25
25 -32 1 -7 5 -12 10 -12 6 1 21 -12 35 -29 22 -28 23 -30 5 -23 -16 6 -18 5
-7 -5 9 -10 15 -10 25 0 6 6 12 15 12 19 1 4 7 18 14 31 11 21 10 26 -16 53
-15 16 -40 38 -54 49 -26 18 -26 18 -37 -6z m34 -44 c-22 -21 -46 0 -26 24 10
12 16 13 27 3 12 -10 12 -13 -1 -27z m62 -16 c2 -2 -6 -13 -18 -25 -18 -18
-24 -20 -31 -9 -19 31 -6 53 25 43 12 -4 23 -8 24 -9z"/>
<path d="M680 1037 c0 -2 15 -16 33 -33 l32 -29 -29 33 c-28 30 -36 37 -36 29z"/>
<path d="M763 1025 c-22 -15 -28 -61 -10 -72 6 -4 7 -1 2 8 -6 10 -4 10 7 -1
27 -27 60 -137 62 -204 1 -56 3 -62 13 -43 12 21 12 21 13 -8 l1 -30 10 25
c32 79 -8 282 -64 328 -10 9 -18 8 -34 -3z"/>
<path d="M163 933 c-3 -10 -8 -22 -11 -27 -3 -5 0 -6 5 -3 11 7 25 47 17 47
-3 0 -7 -8 -11 -17z"/>
<path d="M741 917 c-13 -21 -12 -21 5 -5 10 10 16 20 13 22 -3 3 -11 -5 -18
-17z"/>
<path d="M300 833 c-44 -70 -41 -85 16 -81 42 3 48 6 71 46 24 41 24 42 5 42
-13 0 -25 -11 -34 -30 -7 -17 -21 -30 -30 -30 -23 0 -23 -1 8 54 21 38 23 46
10 46 -9 0 -29 -21 -46 -47z"/>
<path d="M436 871 c-4 -5 -3 -16 0 -24 3 -8 -6 -34 -20 -56 -25 -39 -25 -41
-7 -41 13 0 29 17 48 50 20 36 34 50 49 50 12 0 27 7 34 15 11 13 5 15 -43 15
-31 0 -58 -4 -61 -9z"/>
<path d="M122 735 c0 -16 2 -22 5 -12 2 9 2 23 0 30 -3 6 -5 -1 -5 -18z"/>
<path d="M675 610 c-4 -6 -10 -8 -14 -5 -5 2 -16 -4 -26 -15 -10 -11 -14 -20
-10 -20 4 0 1 -8 -8 -18 -14 -16 -15 -23 -4 -45 6 -15 15 -27 20 -27 14 0 98
83 113 112 l15 28 -40 0 c-22 0 -43 -5 -46 -10z m-20 -29 c-3 -6 -11 -11 -17
-11 -6 0 -6 6 2 15 14 17 26 13 15 -4z m36 -43 c-11 -10 -14 -10 -18 0 -6 17
-20 15 -27 -4 -4 -9 -2 -13 5 -8 7 4 10 1 7 -6 -7 -21 -27 -24 -34 -5 -5 12 2
24 22 40 25 21 31 22 44 9 12 -11 12 -16 1 -26z"/>
<path d="M760 590 c-6 -11 -8 -20 -6 -20 3 0 10 9 16 20 6 11 8 20 6 20 -3 0
-10 -9 -16 -20z"/>
<path d="M170 581 c5 -11 15 -23 21 -27 6 -3 3 5 -6 20 -20 30 -30 35 -15 7z"/>
<path d="M705 518 l-40 -43 43 40 c39 36 47 45 39 45 -2 0 -21 -19 -42 -42z"/>
<path d="M634 464 c-18 -14 -18 -15 4 -4 12 6 22 13 22 15 0 8 -5 6 -26 -11z"/>
<path d="M317 449 c7 -7 15 -10 18 -7 3 3 -2 9 -12 12 -14 6 -15 5 -6 -5z"/>
<path d="M528 423 c7 -3 16 -2 19 1 4 3 -2 6 -13 5 -11 0 -14 -3 -6 -6z"/>
<path d="M133 378 c-2 -5 150 -8 338 -8 188 0 340 2 337 6 -9 8 -669 10 -675
2z"/>
<path d="M312 330 c0 -14 2 -19 5 -12 2 6 2 18 0 25 -3 6 -5 1 -5 -13z"/>
<path d="M342 330 c0 -14 2 -19 5 -12 2 6 2 18 0 25 -3 6 -5 1 -5 -13z"/>
<path d="M591 324 c0 -11 3 -14 6 -6 3 7 2 16 -1 19 -3 4 -6 -2 -5 -13z"/>
<path d="M180 320 c0 -5 5 -10 10 -10 6 0 10 5 10 10 0 6 -4 10 -10 10 -5 0
-10 -4 -10 -10z"/>
<path d="M220 320 c0 -5 5 -10 10 -10 6 0 10 5 10 10 0 6 -4 10 -10 10 -5 0
-10 -4 -10 -10z"/>
<path d="M260 320 c0 -5 5 -10 10 -10 6 0 10 5 10 10 0 6 -4 10 -10 10 -5 0
-10 -4 -10 -10z"/>
<path d="M446 313 c-6 -14 -5 -15 5 -6 7 7 10 15 7 18 -3 3 -9 -2 -12 -12z"/>
<path d="M480 320 c0 -5 5 -10 10 -10 6 0 10 5 10 10 0 6 -4 10 -10 10 -5 0
-10 -4 -10 -10z"/>
<path d="M520 320 c0 -5 5 -10 10 -10 6 0 10 5 10 10 0 6 -4 10 -10 10 -5 0
-10 -4 -10 -10z"/>
<path d="M610 320 c0 -5 5 -10 10 -10 6 0 10 5 10 10 0 6 -4 10 -10 10 -5 0
-10 -4 -10 -10z"/>
<path d="M650 320 c0 -5 5 -10 10 -10 6 0 10 5 10 10 0 6 -4 10 -10 10 -5 0
-10 -4 -10 -10z"/>
<path d="M690 320 c0 -5 5 -10 10 -10 6 0 10 5 10 10 0 6 -4 10 -10 10 -5 0
-10 -4 -10 -10z"/>
<path d="M740 320 c0 -5 5 -10 10 -10 6 0 10 5 10 10 0 6 -4 10 -10 10 -5 0
-10 -4 -10 -10z"/>
<path d="M400 231 c0 -20 -6 -30 -20 -34 -14 -4 -20 -14 -20 -35 0 -17 4 -33
9 -36 5 -3 8 8 7 25 0 19 5 34 13 37 10 3 12 -4 9 -32 -2 -20 0 -36 4 -36 4 0
8 32 8 70 0 39 -2 70 -5 70 -3 0 -5 -13 -5 -29z"/>
<path d="M503 190 c0 -41 2 -58 4 -37 2 20 2 54 0 75 -2 20 -4 3 -4 -38z"/>
<path d="M151 231 c-16 -29 -13 -87 5 -105 20 -21 31 -20 44 3 14 27 13 51 -4
51 -9 0 -12 -8 -8 -25 3 -18 0 -25 -12 -25 -13 0 -16 11 -16 51 0 47 2 51 21
46 13 -3 19 -1 16 6 -6 20 -35 19 -46 -2z"/>
<path d="M234 160 c1 -33 5 -45 16 -45 10 0 17 14 21 43 3 23 2 42 -3 42 -4 0
-8 -16 -8 -35 0 -47 -18 -45 -23 3 -4 32 -4 31 -3 -8z"/>
<path d="M296 184 c-9 -24 -7 -49 5 -61 21 -21 39 -3 39 38 0 32 -4 39 -19 39
-10 0 -22 -7 -25 -16z m34 -24 c0 -16 -4 -30 -9 -30 -12 0 -19 21 -13 43 7 28
22 20 22 -13z"/>
<path d="M437 193 c-10 -9 -8 -71 2 -77 4 -3 8 10 7 29 0 19 4 33 9 32 6 -1
10 -14 10 -29 0 -16 3 -28 7 -28 5 0 8 18 8 40 0 32 -4 40 -18 40 -10 0 -22
-3 -25 -7z"/>
<path d="M537 193 c-10 -9 -8 -71 2 -77 4 -3 8 10 7 29 0 19 4 33 9 32 6 -1
10 -14 10 -29 0 -16 3 -28 7 -28 5 0 8 18 8 40 0 32 -4 40 -18 40 -10 0 -22
-3 -25 -7z"/>
<path d="M602 153 l-2 -53 -237 -2 -238 -2 240 -6 c132 -3 287 -2 345 1 l105
5 -102 2 -102 2 -4 53 -3 52 -2 -52z"/>
<path d="M634 186 c-11 -29 1 -61 24 -64 20 -3 22 1 22 37 0 35 -3 41 -20 41
-11 0 -23 -6 -26 -14z m36 -26 c0 -20 -5 -30 -15 -30 -15 0 -21 40 -8 53 14
15 23 6 23 -23z"/>
<path d="M701 158 c2 -35 3 -37 6 -13 3 17 9 36 15 43 8 9 6 12 -6 12 -12 0
-16 -9 -15 -42z"/>
<path d="M750 161 c0 -22 4 -42 9 -45 5 -4 7 12 4 35 -5 33 -3 41 8 37 8 -3
13 -18 13 -37 -1 -17 2 -31 7 -31 5 0 9 18 9 40 0 36 -2 40 -25 40 -22 0 -25
-4 -25 -39z"/>
</g>
</svg>
